<mxfile host="app.diagrams.net" modified="2021-12-08T07:43:22.439Z" agent="5.0 (Windows NT 10.0; Win64; x64) AppleWebKit/537.36 (KHTML, like Gecko) Chrome/96.0.4664.45 Safari/537.36" etag="nO6hsqkGIKMgh8E10L8x" version="15.9.1" type="github">
  <diagram id="ImNs1xZGlemWh_J_eiTZ" name="Page-1">
    <mxGraphModel dx="1422" dy="762" grid="1" gridSize="10" guides="1" tooltips="1" connect="1" arrows="1" fold="1" page="1" pageScale="1" pageWidth="827" pageHeight="1169" math="0" shadow="0">
      <root>
        <mxCell id="0" />
        <mxCell id="1" parent="0" />
        <mxCell id="doVi69SOKDGzMumPR583-1" value="主界面" style="rounded=1;whiteSpace=wrap;html=1;fillColor=#fff2cc;strokeColor=#d6b656;" vertex="1" parent="1">
          <mxGeometry x="354" y="40" width="120" height="40" as="geometry" />
        </mxCell>
        <mxCell id="doVi69SOKDGzMumPR583-2" value="局内" style="rounded=1;whiteSpace=wrap;html=1;fillColor=#fff2cc;strokeColor=#d6b656;" vertex="1" parent="1">
          <mxGeometry x="354" y="180" width="120" height="40" as="geometry" />
        </mxCell>
        <mxCell id="doVi69SOKDGzMumPR583-3" value="点击第1关" style="rounded=1;whiteSpace=wrap;html=1;" vertex="1" parent="1">
          <mxGeometry x="354" y="110" width="120" height="40" as="geometry" />
        </mxCell>
        <mxCell id="doVi69SOKDGzMumPR583-4" value="图块下落动画" style="rounded=1;whiteSpace=wrap;html=1;" vertex="1" parent="1">
          <mxGeometry x="354" y="250" width="120" height="40" as="geometry" />
        </mxCell>
        <mxCell id="doVi69SOKDGzMumPR583-5" value="" style="endArrow=classic;html=1;entryX=0.5;entryY=0;entryDx=0;entryDy=0;exitX=0.5;exitY=1;exitDx=0;exitDy=0;" edge="1" parent="1" source="doVi69SOKDGzMumPR583-3" target="doVi69SOKDGzMumPR583-2">
          <mxGeometry width="50" height="50" relative="1" as="geometry">
            <mxPoint x="410" y="170" as="sourcePoint" />
            <mxPoint x="424" y="120" as="targetPoint" />
          </mxGeometry>
        </mxCell>
        <mxCell id="doVi69SOKDGzMumPR583-6" value="" style="endArrow=classic;html=1;exitX=0.5;exitY=1;exitDx=0;exitDy=0;entryX=0.5;entryY=0;entryDx=0;entryDy=0;" edge="1" parent="1" source="doVi69SOKDGzMumPR583-2" target="doVi69SOKDGzMumPR583-4">
          <mxGeometry width="50" height="50" relative="1" as="geometry">
            <mxPoint x="434" y="100" as="sourcePoint" />
            <mxPoint x="434" y="130" as="targetPoint" />
          </mxGeometry>
        </mxCell>
        <mxCell id="doVi69SOKDGzMumPR583-7" value="" style="endArrow=classic;html=1;exitX=0.5;exitY=1;exitDx=0;exitDy=0;" edge="1" parent="1" source="doVi69SOKDGzMumPR583-1">
          <mxGeometry width="50" height="50" relative="1" as="geometry">
            <mxPoint x="424" y="160" as="sourcePoint" />
            <mxPoint x="414" y="110" as="targetPoint" />
          </mxGeometry>
        </mxCell>
        <mxCell id="doVi69SOKDGzMumPR583-8" value="引导界面1" style="rounded=1;whiteSpace=wrap;html=1;" vertex="1" parent="1">
          <mxGeometry x="354" y="320" width="120" height="40" as="geometry" />
        </mxCell>
        <mxCell id="doVi69SOKDGzMumPR583-9" value="引导界面2" style="rounded=1;whiteSpace=wrap;html=1;" vertex="1" parent="1">
          <mxGeometry x="354" y="390" width="120" height="40" as="geometry" />
        </mxCell>
        <mxCell id="doVi69SOKDGzMumPR583-10" value="进入关卡" style="rounded=1;whiteSpace=wrap;html=1;" vertex="1" parent="1">
          <mxGeometry x="354" y="460" width="120" height="40" as="geometry" />
        </mxCell>
        <mxCell id="doVi69SOKDGzMumPR583-11" value="玩家中途退出" style="rounded=1;whiteSpace=wrap;html=1;" vertex="1" parent="1">
          <mxGeometry x="540" y="460" width="120" height="40" as="geometry" />
        </mxCell>
        <mxCell id="doVi69SOKDGzMumPR583-12" value="玩家通关" style="rounded=1;whiteSpace=wrap;html=1;" vertex="1" parent="1">
          <mxGeometry x="354" y="530" width="120" height="40" as="geometry" />
        </mxCell>
        <mxCell id="doVi69SOKDGzMumPR583-13" value="玩法引导结束" style="rounded=1;whiteSpace=wrap;html=1;" vertex="1" parent="1">
          <mxGeometry x="354" y="600" width="120" height="40" as="geometry" />
        </mxCell>
      </root>
    </mxGraphModel>
  </diagram>
</mxfile>
